 <svg width="400" height="400" viewBox="0 0 400 400" fill="none" xmlns="http://www.w3.org/2000/svg">
<g clip-path="url(#clip0_129_123)">
<rect x="8" y="8" width="384" height="384" fill="white" stroke="black" stroke-width="16"/>
<circle cx="153.133" cy="139.157" r="111.571" fill="black"/>
<ellipse cx="262.133" cy="97.2534" rx="102.831" ry="24.4224" transform="rotate(-24.0098 262.133 97.2534)" fill="black"/>
<ellipse cx="242.5" cy="158.004" rx="76.8637" ry="24.4224" transform="rotate(-6.06094 242.5 158.004)" fill="black"/>
<path d="M153.133 68.6714L162.252 96.0273L191.763 96.0273L167.888 112.934L177.008 140.29L153.133 123.383L129.258 140.29L138.377 112.934L114.503 96.0273L144.013 96.0273L153.133 68.6714Z" fill="white"/>
<rect x="27.626" y="249.012" width="343.454" height="123.397" fill="black"/>
<path d="M324.78 337.512H325.28V337.012V318.251L343.031 289.382L343.499 288.62H342.605H333.79H333.508L333.362 288.862L320.668 309.892L308.07 288.863L307.924 288.62H307.641H298.729H297.834L298.303 289.382L316.053 318.251V337.012V337.512H316.553H324.78Z" fill="white" stroke="white"/>
<path d="M251.946 337.012V337.512H252.446H268.312C277.457 337.512 284.424 335.374 289.121 331.012C293.816 326.653 296.137 320.566 296.137 312.821C296.137 305.203 293.78 299.243 289.016 295.015C284.259 290.728 277.529 288.62 268.899 288.62H252.446H251.946V289.12V337.012ZM261.075 328.873V297.063H268.606C274.845 297.063 279.431 298.423 282.454 301.054C285.463 303.674 287.008 307.629 287.008 313.017C287.008 318.272 285.505 322.201 282.569 324.888C279.625 327.518 275.291 328.873 269.487 328.873H261.075Z" fill="white" stroke="white"/>
<path d="M243.388 336.72L231.256 319.849C234.445 318.785 236.895 317.048 238.57 314.623C240.357 312.036 241.23 308.713 241.23 304.692C241.23 299.115 239.6 294.989 236.237 292.446C232.966 289.86 227.634 288.62 220.358 288.62H202.534H202.034V289.12V337.012V337.512H202.534H210.663H211.163V337.012V321.352H220.981L232.291 337.301L232.44 337.512H232.699H242.982H243.958L243.388 336.72ZM229.672 298.639L229.672 298.64L229.683 298.647C231.174 299.622 232.003 301.533 232.003 304.594C232.003 307.785 231.173 309.922 229.642 311.159C228.089 312.414 225.144 313.105 220.652 313.105H211.163V296.965H220.848C225.213 296.965 228.11 297.558 229.672 298.639Z" fill="white" stroke="white"/>
<path d="M181.196 288.62H180.696V289.12V337.012V337.512H181.196H189.325H189.825V337.012V289.12V288.62H189.325H181.196Z" fill="white" stroke="white"/>
<path d="M132.361 337.012V337.512H132.861H153.82C159.94 337.512 164.471 336.232 167.286 333.557C170.13 330.915 171.557 327.615 171.557 323.692C171.557 320.585 170.642 317.952 168.792 315.826C167.278 314.022 165.276 312.749 162.808 311.995C163.796 311.495 164.592 311.023 165.187 310.577L165.187 310.577L165.194 310.571C167.698 308.624 168.912 305.649 168.912 301.754C168.912 298.495 167.789 295.605 165.558 293.102C162.993 290.057 158.228 288.62 151.469 288.62H132.861H132.361V289.12V337.012ZM157.532 298.528L157.543 298.536L157.553 298.544C158.812 299.401 159.49 300.85 159.49 303.027C159.49 304.877 158.819 306.204 157.506 307.094C156.158 308.008 154.073 308.502 151.175 308.502H141.49V297.063H151.273C154.24 297.063 156.292 297.583 157.532 298.528ZM153.624 329.069H141.49V316.945H152.644C156.004 316.945 158.438 317.473 160.019 318.46C161.56 319.424 162.33 320.849 162.33 322.811C162.33 325.188 161.616 326.764 160.298 327.685C158.918 328.582 156.72 329.069 153.624 329.069Z" fill="white" stroke="white"/>
<path d="M111.523 288.62H111.023V289.12V337.012V337.512H111.523H119.652H120.152V337.012V289.12V288.62H119.652H111.523Z" fill="white" stroke="white"/>
<path d="M63.2808 288.62H62.7808V289.12V337.012V337.512H63.2808H71.4096H71.9096V337.012V323.79L78.3255 316.832L93.8306 337.314L93.9806 337.512H94.2292H103.827H104.806L104.232 336.719L84.9815 310.116L103.902 289.458L104.669 288.62H103.533H93.3478H93.1317L92.9837 288.777L71.9096 311.169V289.12V288.62H71.4096H63.2808Z" fill="white" stroke="white"/>
</g>
<defs>
<clipPath id="clip0_129_123">
<rect width="400" height="400" fill="white"/>
</clipPath>
</defs>
</svg>

